HIERARCHY
ROOT pelvis
{
  OFFSET 0 100 0
  CHANNELS 6 Xposition Yposition Zposition Zrotation Xrotation Yrotation
  JOINT pelvis_right_femur
  {
    OFFSET -10.78128 -3.44521 -0.5502486
    CHANNELS 3 Zrotation Xrotation Yrotation
    JOINT right_femur_tibia
    {
      OFFSET -0.8047443 -44.0398 -0.1307829
      CHANNELS 3 Zrotation Xrotation Yrotation
      JOINT right_tibia_foot
      {
        OFFSET 3.006224 -47.83518 -5
        CHANNELS 3 Zrotation Xrotation Yrotation
        End Site
        {
          OFFSET 0 -5 15
        }
      }
    }
  }
  JOINT pelvis_left_femur
  {
    OFFSET 10.78128 -3.44521 -0.5502486
    CHANNELS 3 Zrotation Xrotation Yrotation
    JOINT left_femur_tibia
    {
      OFFSET 0.8047443 -44.0398 -0.1307829
      CHANNELS 3 Zrotation Xrotation Yrotation
      JOINT left_tibia_foot
      {
        OFFSET -4.370144 -48.10324 -4.275266
        CHANNELS 3 Zrotation Xrotation Yrotation
        End Site
        {
          OFFSET 0 -5 15
        }
      }
    }
  }
  JOINT pelvis_spine1
  {
    OFFSET 0 6.468898 -3.129235
    CHANNELS 3 Zrotation Xrotation Yrotation
    JOINT spine1
    {
      OFFSET 0 23.15396 4.99043
      CHANNELS 3 Zrotation Xrotation Yrotation
      JOINT spine2
      {
        OFFSET 0 20.79997 -5.064912
        CHANNELS 3 Zrotation Xrotation Yrotation
        JOINT neck
        {
          OFFSET 0 14.38658 9.616178
          CHANNELS 3 Zrotation Xrotation Yrotation
          End Site
          {
            OFFSET 0 20 0
          }
        }
      }
      JOINT right_manubrium
      {
        OFFSET -5.722621 16.35077 3.967754
        CHANNELS 3 Zrotation Xrotation Yrotation
        JOINT right_clavicle
        {
          OFFSET -13.16364 1.694482 -4.693211
          CHANNELS 3 Zrotation Xrotation Yrotation
          JOINT right_humerus
          {
            OFFSET -28.5034 -0.3100689 -2.792744
            CHANNELS 3 Zrotation Xrotation Yrotation
            JOINT right_radius
            {
              OFFSET -25.15693 0.02248979 -1.271978
              CHANNELS 3 Zrotation Xrotation Yrotation
              End Site
              {
                OFFSET -15 0 0
              }
            }
          }
        }
      }
      JOINT left_manubrium
      {
        OFFSET 5.722621 16.35077 3.967754
        CHANNELS 3 Zrotation Xrotation Yrotation
        JOINT left_clavicle
        {
          OFFSET 13.16364 1.694482 -4.693211
          CHANNELS 3 Zrotation Xrotation Yrotation
          JOINT left_humerus
          {
            OFFSET 29.39168 -1.063119 -2.237045
            CHANNELS 3 Zrotation Xrotation Yrotation
            JOINT left_radius
            {
              OFFSET 24.59957 -0.9528479 0.9047498
              CHANNELS 3 Zrotation Xrotation Yrotation
              End Site
              {
                OFFSET 15 -0 -0
              }
            }
          }
        }
      }
    }
  }
}
MOTION
Frames: 21
Frame Time: 0.0416666666667
0 103.5113 0 1.743418 0.4786512 0.1368509 3.549602 -15.33442 9.822363 -0 34.17338 -0 -3.111304 -20.04319 -1.98444 -7.815241 9.148355 -21.7097 -0 2.97834 -0 19.0494 -9.684358 28.13779 -2.348003 -2.135314 5.091917 2.449057 9.863991 -6.681808 1.496938 21.45114 7.286114 3.007807 -25.09692 10.59626 5.641333 -18.699 11.44703 86.04795 39.03738 -17.3866 -0 0 13.47431 -7.237217 8.240011 4.921545 5.886232 -19.60471 -1.129949 -91.39253 20.32694 20.54693 0 0 -16.48686 14.59415 12.29398 -2.837869
0.4532437 103.4579 1.802974 1.376911 1.321853 0.2761932 4.426637 -18.42565 10.73506 -0 34.71885 -0 -2.922477 -19.53117 -2.375619 -7.796662 9.886967 -21.78322 -0 3.774684 -0 18.86612 -10.94218 28.46316 -2.450637 -2.102215 4.719917 2.853082 9.804712 -6.979957 1.523499 21.24476 7.313612 2.898857 -25.53244 10.82197 5.64528 -18.54765 11.52497 86.59262 39.23474 -18.2795 -0 0 12.8094 -6.372138 8.386726 4.624877 5.824295 -19.54831 -1.341608 -90.63033 20.15364 19.7686 0 0 -18.0293 15.07705 11.75314 -3.46484
0.8532282 103.2577 3.7868 1.034352 0.8187048 0.3829745 4.890798 -20.69468 9.480049 -0 33.13809 -0 -4.488746 -16.3496 -2.443298 -7.560521 10.89453 -21.13816 -0 5.444955 -0 17.18125 -13.00571 27.74725 -2.438059 -2.038841 4.605839 2.994378 9.916173 -7.177195 1.46087 21.18517 7.203367 2.859692 -25.50113 10.53681 5.624591 -18.42524 11.59617 86.81685 38.65414 -18.77449 -0 0 12.44628 -6.574283 8.38907 4.802664 5.748175 -19.7292 -1.544354 -90.34621 20.31163 19.39441 0 0 -18.4859 14.51375 11.48013 -2.817091
1.205684 103.0276 5.957942 0.6393146 1.213767 0.459211 5.598105 -23.5696 9.213096 -0 31.58805 -0 -5.054063 -14.37289 -2.539673 -7.374061 11.54727 -20.59961 -0 6.538645 -0 16.10534 -14.69726 27.221 -2.476384 -1.982926 4.358592 3.268565 9.967566 -7.461938 1.42017 21.05193 7.1202 2.774449 -25.61827 10.39048 5.597011 -18.26351 11.67863 87.2063 38.28431 -19.5119 -0 0 11.90029 -6.428505 8.486821 4.845951 5.666173 -19.86525 -1.789657 -89.75896 20.35427 18.71607 0 0 -19.54225 14.24961 11.04556 -2.554175
1.513262 102.7351 8.355285 0.2314979 1.770967 0.5459077 6.283481 -26.40614 8.990648 -0 29.65095 -0 -5.445741 -12.51285 -2.599864 -7.144759 12.12173 -20.03469 -0 7.434459 -0 14.75863 -16.39857 26.47586 -2.508005 -1.992295 4.155306 3.517733 9.99455 -7.713407 1.375515 20.93883 7.067433 2.702326 -25.82945 10.30576 5.570514 -18.18724 11.74164 87.50207 37.88986 -20.16183 -0 0 11.51324 -6.245209 8.541384 4.858881 5.62852 -19.99476 -1.971036 -89.40364 20.49813 18.2838 0 0 -20.36105 14.07714 10.77543 -2.369652
1.782386 102.3839 11.05325 -0.1719255 2.482079 0.6705262 6.980291 -29.13473 8.794056 -0 27.24705 -0 -5.738995 -10.74613 -2.56943 -6.903521 12.63273 -19.36081 -0 8.376431 -0 13.54477 -17.78105 25.55169 -2.549332 -2.001723 3.939516 3.774037 10.00982 -7.971551 1.331137 20.82151 7.013048 2.621853 -26.02457 10.22185 5.536734 -18.10371 11.80347 87.80059 37.52488 -20.80634 -0 0 11.11646 -6.068521 8.616845 4.880667 5.586983 -20.12351 -2.155861 -88.99278 20.6157 17.79028 0 0 -21.24741 13.91206 10.4866 -2.207762
2.016692 101.9782 14.11982 -0.5543718 3.179013 0.8560155 7.589195 -31.4612 8.489267 -0 24.61003 -0 -6.049326 -9.013409 -2.451065 -6.632409 13.15628 -18.63304 -0 9.537429 -0 12.19367 -18.82831 24.35473 -2.58969 -2.028597 3.744574 4.012782 10.01644 -8.210783 1.283837 20.71679 6.966943 2.546996 -26.22882 10.14724 5.501455 -18.04775 11.85808 88.05195 37.15482 -21.38906 -0 0 10.78275 -5.913487 8.674528 4.910118 5.555287 -20.24735 -2.317837 -88.65997 20.75947 17.37995 0 0 -22.0228 13.75251 10.25244 -2.048299
2.217911 101.5473 17.61791 -0.9178805 3.764881 1.118065 8.084532 -33.14893 8.063063 -0 22.05413 -0 -6.445582 -7.396629 -2.260116 -6.319805 13.69216 -17.88231 -0 11.23076 -0 10.64254 -19.36928 22.84881 -2.625262 -2.046558 3.574809 4.216265 10.0268 -8.423213 1.237152 20.6298 6.918841 2.480331 -26.37288 10.05336 5.465798 -17.98915 11.90689 88.26722 36.80159 -21.89028 -0 0 10.48464 -5.838607 8.729643 4.966486 5.520491 -20.36827 -2.468059 -88.3514 20.88579 16.99332 0 0 -22.69316 13.55232 10.03997 -1.844878
2.387082 101.1452 21.58401 -1.275601 4.129759 1.455887 8.450163 -33.93957 7.527973 -0 19.96992 -0 -6.969453 -6.047885 -2.042388 -5.940642 14.15324 -17.14835 -0 13.77969 -0 8.746034 -19.271 21.00395 -2.648738 -2.050961 3.444457 4.368892 10.04907 -8.596383 1.192011 20.56837 6.869749 2.429587 -26.44461 9.93532 5.43448 -17.92851 11.94869 88.43648 36.45967 -22.28873 -0 0 10.23514 -5.863918 8.772016 5.05086 5.483247 -20.48478 -2.601679 -88.10153 21.00012 16.66779 0 0 -23.19127 13.29726 9.863894 -1.573931
2.528002 100.8538 26.01787 -1.640324 4.199001 1.842585 8.707315 -33.62451 6.9482 -0 18.67299 -0 -7.619647 -5.18511 -1.854348 -5.481203 14.32752 -16.43281 -0 17.54373 -0 6.503503 -18.37427 18.86873 -2.653602 -2.028957 3.364737 4.453111 10.09245 -8.718106 1.151883 20.53861 6.817183 2.400764 -26.41039 9.783436 5.411297 -17.855 11.98257 88.55826 36.14228 -22.56204 -0 0 10.0338 -6.019012 8.804854 5.166892 5.440422 -20.5952 -2.718288 -87.90968 21.08553 16.40371 0 0 -23.48244 12.97095 9.720935 -1.213821
2.651149 100.7696 30.87054 -1.996081 3.942095 2.218068 8.863041 -32.08455 6.382508 -0 18.24323 -0 -8.332505 -5.012604 -1.745209 -4.962626 13.88463 -15.69349 -0 22.76544 -0 4.08392 -16.60443 16.59975 -2.634502 -1.97505 3.346809 4.456224 10.16253 -8.777326 1.118993 20.54497 6.761146 2.39924 -26.25741 9.595279 5.399446 -17.76853 12.00759 88.62403 35.85396 -22.68902 -0 0 9.891503 -6.318471 8.825776 5.31505 5.39199 -20.6956 -2.81411 -87.79315 21.13926 16.22331 0 0 -23.52724 12.56746 9.61575 -0.7528705
2.774518 100.9767 36.04401 -2.275972 3.388114 2.497803 8.869831 -29.31843 5.836101 -0 18.40944 -0 -8.990749 -5.621607 -1.728292 -4.453875 12.43726 -14.84937 -0 29.4395 -0 1.820718 -14.05796 14.43999 -2.588728 -1.88569 3.400178 4.368139 10.26097 -8.763558 1.095684 20.58987 6.701084 2.428018 -25.97543 9.370479 5.399855 -17.67223 12.02274 88.62121 35.60402 -22.64377 -0 0 9.823638 -6.773771 8.835847 5.497838 5.338 -20.77969 -2.884522 -87.76176 21.15583 16.14333 0 0 -23.30167 12.08665 9.549173 -0.1887472
2.918686 101.5103 41.40482 -2.364378 2.613604 2.603118 8.622128 -25.44507 5.23517 -0 18.58067 -0 -9.458762 -6.879189 -1.757136 -4.044477 9.671316 -13.81979 -0 37.12878 -0 0.06584555 -11.07692 12.63267 -2.517272 -1.762961 3.532359 4.183878 10.38362 -8.667879 1.083185 20.67335 6.636782 2.487112 -25.56559 9.112495 5.410457 -17.57746 12.02697 88.52942 35.40035 -22.39588 -0 0 9.855229 -7.388947 8.83552 5.720427 5.279559 -20.83835 -2.922739 -87.82635 21.13438 16.1845 0 0 -22.79297 11.53539 9.522643 0.4701889
3.097111 102.3286 46.81216 -2.144781 1.705214 2.50145 8.033675 -20.67744 4.476007 -0 18.09045 -0 -9.643921 -8.407232 -1.732786 -3.775494 5.496403 -12.57102 -0 44.89588 -0 -0.9784803 -8.180638 11.34209 -2.425406 -1.613549 3.748501 3.902896 10.52013 -8.482875 1.081804 20.79331 6.567507 2.572896 -25.03486 8.826933 5.425573 -17.50185 12.01905 88.32084 35.25216 -21.90813 -0 0 10.01969 -8.164796 8.826463 5.992714 5.21806 -20.85988 -2.920313 -87.99238 21.07409 16.36409 0 0 -22.00361 10.92565 9.536214 1.205403
3.308764 103.3086 52.14889 -1.577876 0.7184767 2.228612 7.143813 -15.31145 3.518608 -0 16.5439 -0 -9.554536 -9.708909 -1.560149 -3.579237 0.1558256 -11.13314 -0 51.40902 -0 -1.321285 -5.879105 10.65739 -2.322742 -1.449164 4.051143 3.529495 10.65409 -8.203258 1.090476 20.94576 6.491974 2.677966 -24.39596 8.520801 5.435866 -17.46929 11.99774 87.96011 35.16684 -21.13679 -0 0 10.35874 -9.100168 8.810253 6.330444 5.154943 -20.83056 -2.867436 -88.26098 20.97535 16.69615 0 0 -20.94942 10.27194 9.589533 1.99072
3.540966 104.269 57.34169 -0.7617835 -0.3346637 1.872845 6.154596 -9.721055 2.451398 -0 14.05351 -0 -9.315722 -10.43117 -1.227061 -3.281076 -5.779601 -9.571949 -0 55.26782 -0 -1.119487 -4.465003 10.63658 -2.222869 -1.286037 4.439673 3.073111 10.76369 -7.826705 1.106597 21.12493 6.408165 2.791161 -23.66568 8.201524 5.428712 -17.50855 11.96195 87.40577 35.14693 -20.03335 -0 0 10.92013 -10.19343 8.788033 6.755747 5.091106 -20.73538 -2.754002 -88.62769 20.83952 17.18929 0 0 -19.6596 9.588328 9.681325 2.795546
3.782728 105.0105 62.36583 0.07748726 -1.454365 1.526901 5.348777 -4.317874 1.471853 -0 11.19241 -0 -9.098266 -10.61251 -0.8349327 -2.669352 -11.56346 -7.953693 -0 55.43089 -0 -0.589821 -3.910899 11.29898 -2.142438 -1.144477 4.908888 2.549819 10.82318 -7.355847 1.125851 21.32297 6.313647 2.897842 -22.86645 7.877016 5.389277 -17.65132 11.91113 86.61474 35.18534 -18.5515 -0 0 11.75273 -11.43982 8.759854 7.295277 5.02654 -20.55946 -2.571327 -89.08226 20.67065 17.84515 0 0 -18.17867 8.886988 9.808725 3.587431
4.039201 105.3573 67.24268 0.6749782 -2.599674 1.235756 4.940417 0.5628498 0.7944342 -0 8.683522 -0 -8.980639 -10.71036 -0.540729 -1.598319 -16.5348 -6.340266 -0 51.57459 -0 0.02157075 -3.92113 12.54969 -2.099099 -1.046963 5.446487 1.98423 10.80629 -6.801376 1.142581 21.52914 6.206136 2.98084 -22.0282 7.556201 5.302863 -17.92734 11.84591 85.55315 35.26097 -16.66269 -0 0 12.8952 -12.82483 8.724827 7.974288 4.960048 -20.29076 -2.315325 -89.60653 20.4765 18.65409 0 0 -16.57157 8.178539 9.965199 4.334156
4.336249 105.1951 72.03957 0.8481108 -3.654721 0.972952 4.957637 4.788191 0.5457325 -0 7.029128 -0 -8.864766 -11.32227 -0.4538134 -0.0810121 -20.35191 -4.813214 -0 44.24586 -0 0.443492 -4.103831 14.12843 -2.107518 -1.013359 6.030111 1.410325 10.69324 -6.185604 1.150994 21.72954 6.084292 3.023061 -21.18872 7.249091 5.159188 -18.35456 11.76903 84.216 35.33564 -14.38278 -0 0 14.35544 -14.31457 8.681692 8.805316 4.889086 -19.92486 -1.991564 -90.17191 20.26873 19.58826 0 0 -14.92738 7.472818 10.13729 5.007733
4.712711 104.4982 76.86982 0.5844001 -4.449182 0.6637172 5.215913 8.450549 0.7077302 -0 6.33058 -0 -8.543886 -12.75942 -0.5578264 1.664466 -23.04465 -3.500466 -0 34.77947 -0 0.4387067 -4.166717 15.68044 -2.173542 -1.052538 6.625624 0.8690095 10.48153 -5.544447 1.147376 21.90847 5.948546 3.012404 -20.38988 6.965419 4.958376 -18.92453 11.68656 82.65322 35.35543 -11.80562 -0 0 16.08326 -15.84706 8.629285 9.77259 4.809795 -19.47092 -1.621422 -90.73879 20.06155 20.59493 0 0 -13.35425 6.77812 10.30108 5.592383
5.206986 103.3421 81.88217 0.05568959 -4.844955 0.238892 5.384302 11.74861 1.136631 -0 6.423884 -0 -7.878029 -14.75569 -0.7066901 3.234012 -24.84311 -2.593624 -0 25.01353 -0 -0.08178163 -4.037371 16.9289 -2.288552 -1.152995 7.188917 0.4010731 10.19656 -4.92535 1.132716 22.05192 5.801851 2.948092 -19.66954 6.712033 4.716493 -19.58846 11.60883 80.99006 35.26075 -9.127547 -0 0 17.94771 -17.32999 8.566567 10.81782 4.717765 -18.95617 -1.245985 -91.26097 19.86931 21.59536 0 0 -11.96061 6.099007 10.42146 6.094142
